# xmcd
#
# Track frame offsets: 
#        150
#        20472
#        43207
#        84667
#        121280
#        140640
#        157904
#        187100
#        211671
#        226567
#        271359
#        303035
#        342631
#        386878
#
# Disc length: 5470 seconds
#
# Revision: 0
# Processed by: cddbd v1.5.2PL0 Copyright (c) Steve Scherf et al.
# Submitted via: ExactAudioCopy v0.99pb5
#
DISCID=c1155c0e
DTITLE=Matt Anderson - 2012-01-23 - Blues Cruise aboard the Holland Am
DTITLE=erica
DYEAR=2012
DGENRE=Blues
TTITLE0=Shout Baby Shout
TTITLE1=Home Sweet Home
TTITLE2=Have You Got The Blues
TTITLE3=So Gone Now
TTITLE4=Working Man Blues
TTITLE5=Everything You Need
TTITLE6=Every Hour
TTITLE7=Coal Mining Blues
TTITLE8=Come By
TTITLE9=Steamroller Blues
TTITLE10=Round And Round
TTITLE11=People Get Ready
TTITLE12=Devil's Bride
TTITLE13=Feel Like Going Home
EXTD=
EXTT0=
EXTT1=
EXTT2=
EXTT3=
EXTT4=
EXTT5=
EXTT6=
EXTT7=
EXTT8=
EXTT9=
EXTT10=
EXTT11=
EXTT12=
EXTT13=
PLAYORDER=
